<?xml version="1.0" standalone="no"?>
<!DOCTYPE svg PUBLIC "-//W3C//DTD SVG 20010904//EN"
 "http://www.w3.org/TR/2001/REC-SVG-20010904/DTD/svg10.dtd">
<svg version="1.0" xmlns="http://www.w3.org/2000/svg"
 width="300.000000pt" height="316.000000pt" viewBox="0 0 300.000000 316.000000"
 preserveAspectRatio="xMidYMid meet">

<g transform="translate(0.000000,316.000000) scale(0.100000,-0.100000)"
fill="#000000" stroke="none">
<path d="M0 1580 l0 -1580 1500 0 1500 0 0 1580 0 1580 -1500 0 -1500 0 0
-1580z m1516 1443 c9 -13 9 -22 2 -31 -8 -9 -7 -20 2 -37 12 -23 14 -23 27 -7
12 15 13 13 8 -18 -4 -29 -3 -31 5 -12 10 24 47 30 56 9 7 -19 -31 -112 -45
-111 -6 1 -21 2 -32 3 -20 1 -21 5 -17 49 5 45 5 46 -7 17 l-13 -30 -16 35
c-9 19 -14 26 -12 15 18 -85 18 -84 -1 -83 -10 0 -25 -2 -34 -6 -12 -5 -20 3
-32 36 -10 24 -17 52 -17 61 0 27 30 34 48 11 13 -18 14 -17 8 11 -6 27 -5 28
7 13 13 -16 15 -16 27 7 10 19 11 28 3 36 -9 9 -8 17 0 30 14 23 17 23 33 2z
m-991 -135 c97 -107 209 -282 203 -320 -2 -19 -15 -7 -74 67 -71 89 -114 135
-114 121 0 -4 9 -24 20 -45 20 -40 53 -77 130 -147 38 -34 60 -67 88 -128 3
-5 -23 6 -57 24 -72 39 -192 156 -239 233 -23 37 -35 73 -39 110 -6 61 4 147
17 147 4 0 34 -28 65 -62z m2029 46 c10 -26 5 -157 -7 -192 -30 -82 -157 -219
-264 -285 -27 -16 -39 -26 -28 -22 11 4 31 10 43 13 l24 5 -21 -40 c-27 -55
-75 -93 -114 -93 -40 0 -77 10 -77 20 0 5 28 27 61 49 34 23 59 41 55 41 -20
0 56 105 117 161 75 69 156 189 106 155 -14 -8 -58 -58 -99 -111 -58 -74 -76
-91 -78 -75 -4 22 36 98 99 192 46 67 157 198 169 198 4 0 11 -7 14 -16z
m-1460 -70 c-31 -25 -68 -32 -62 -11 5 16 69 48 81 40 5 -3 -4 -16 -19 -29z
m874 -12 c6 -19 -23 -14 -52 9 -38 30 -44 16 -17 -34 26 -47 25 -90 -1 -95
-12 -2 -16 1 -12 11 3 8 -4 32 -15 53 -27 50 -26 58 5 83 26 21 28 21 57 3 17
-9 32 -23 35 -30z m-711 22 c13 -13 14 -17 3 -24 -8 -5 -10 -17 -6 -35 6 -22
9 -25 22 -14 10 9 18 9 26 1 12 -12 -19 -72 -37 -72 -5 0 -3 -5 5 -10 11 -7 1
-9 -35 -9 -48 1 -49 1 -18 11 21 7 33 18 36 34 3 18 1 22 -8 14 -6 -5 -15 -6
-19 -2 -5 4 -6 -2 -4 -12 5 -29 -17 -30 -36 -1 -23 34 -14 60 14 45 11 -6 20
-7 20 -3 0 4 3 18 6 31 5 16 2 22 -10 22 -9 0 -16 5 -16 10 0 6 7 10 15 10 8
0 15 5 15 10 0 14 9 12 27 -6z m529 1 c14 -13 14 -17 -1 -31 -20 -20 -2 -48
26 -39 29 10 32 -14 5 -50 -18 -23 -22 -35 -13 -38 6 -3 -10 -5 -38 -5 -49 0
-49 0 -17 10 17 6 32 17 32 24 0 7 3 21 6 31 5 17 5 17 -6 0 -6 -9 -15 -15
-21 -12 -5 4 -9 -3 -9 -14 0 -31 -18 -26 -40 11 -21 35 -18 52 9 43 10 -3 23
1 30 9 9 11 8 17 -5 30 -15 16 -15 18 2 31 24 18 22 18 40 0z m-636 -28 c-1
-12 -7 -33 -15 -47 -8 -14 -14 -35 -15 -48 0 -26 -17 -26 -34 1 -8 12 -4 30
17 72 27 55 47 65 47 22z m-115 -48 c16 -46 15 -105 -2 -132 -9 -15 -23 16
-23 52 0 19 -5 49 -12 67 -11 32 -6 64 11 64 5 0 17 -23 26 -51z m975 41 c12
-8 12 -14 -3 -45 -9 -20 -17 -56 -17 -80 0 -57 -14 -65 -29 -14 -10 33 -9 48
6 94 19 59 20 60 43 45z m-446 -45 c0 -5 -13 -12 -29 -15 -16 -3 -28 -9 -26
-15 1 -5 -2 -11 -8 -13 -6 -2 -11 3 -11 11 0 8 -13 17 -31 21 -18 3 -28 10
-24 16 8 14 130 9 129 -5z m-104 -45 c-6 -11 -19 -24 -30 -30 -24 -13 -70 -13
-70 0 0 15 61 50 88 50 20 0 21 -3 12 -20z m154 -1 c32 -25 33 -39 2 -39 -24
0 -76 34 -76 51 0 17 47 9 74 -12z m-1192 -61 c92 -72 258 -234 258 -253 0
-12 -4 -15 -12 -8 -139 108 -215 159 -224 150 -10 -10 99 -94 177 -137 141
-77 104 -94 -49 -24 -95 43 -196 116 -227 163 -27 39 -51 140 -41 166 5 14 9
14 33 1 16 -8 54 -34 85 -58z m578 45 c0 -12 -8 -18 -26 -19 -24 -2 -25 -1 -8
17 21 24 34 24 34 2z m1039 -2 c9 -16 7 -18 -14 -18 -18 0 -25 5 -25 18 0 11
7 19 15 19 8 0 19 -8 24 -19z m661 -12 c0 -56 -22 -118 -56 -158 -46 -53 -159
-127 -248 -162 -132 -52 -140 -29 -14 41 82 45 228 168 162 136 -17 -8 -73
-47 -124 -85 -51 -39 -95 -69 -97 -67 -12 12 26 55 127 148 194 176 250 209
250 147z m-1530 -31 c0 -8 3 -9 8 -3 4 6 59 11 123 12 102 1 116 -1 116 -15 0
-10 -4 -22 -8 -28 -6 -8 2 -17 23 -27 25 -12 29 -17 17 -22 -14 -5 -12 -11 12
-35 16 -16 29 -33 29 -39 0 -20 -21 -11 -51 22 -71 78 -70 77 -85 62 -22 -21
-51 -27 -74 -15 -11 6 -25 8 -31 4 -13 -8 -59 34 -60 55 0 11 -2 12 -6 3 -4
-10 -8 -10 -19 -1 -16 13 -19 39 -4 39 6 0 10 -6 10 -12z m651 -8 c1 -11 3
-10 6 3 4 15 33 25 33 11 0 -18 -24 -45 -35 -40 -8 3 -17 -3 -20 -15 -7 -22
-41 -43 -55 -34 -5 3 -19 1 -30 -5 -14 -8 -29 -7 -56 5 -38 16 -74 7 -74 -18
0 -17 -58 -72 -67 -64 -11 12 16 57 39 66 21 8 21 8 -3 15 -24 6 -24 7 9 21
22 10 31 19 26 27 -5 7 -9 20 -9 29 -1 15 12 17 117 15 97 -1 118 -4 119 -16z
m-691 -10 c0 -5 15 -18 34 -27 18 -10 46 -32 60 -50 l27 -32 -26 -7 c-14 -3
-32 -15 -39 -26 -16 -22 -36 -16 -36 9 0 9 7 24 16 34 15 17 15 18 -7 24 -13
3 -39 5 -58 3 -26 -2 -35 2 -41 17 -13 35 5 65 40 65 16 0 30 -4 30 -10z m810
-6 c10 -11 11 -23 4 -42 -8 -23 -15 -27 -43 -24 -18 2 -45 1 -58 -3 -24 -6
-24 -7 -9 -24 17 -19 22 -61 7 -61 -5 0 -15 7 -22 17 -8 9 -27 22 -44 29 -27
11 -32 10 -65 -17 -40 -33 -56 -20 -19 16 28 27 76 45 63 24 -4 -8 11 2 34 21
102 87 126 97 152 64z m-1112 -106 c22 -24 85 -198 72 -198 -11 0 -83 55 -107
81 -40 44 -68 141 -47 162 9 9 55 -17 82 -45z m1430 -9 c-6 -59 -42 -114 -103
-158 -51 -37 -71 -41 -55 -11 6 11 19 48 30 82 11 35 27 74 36 86 20 29 74 63
87 55 5 -3 7 -27 5 -54z m-873 45 c8 -4 22 -19 30 -35 16 -29 20 -79 8 -79 -8
1 -65 120 -58 120 2 0 11 -3 20 -6z m255 1 c0 -16 -55 -113 -62 -109 -16 10
-7 53 18 83 23 27 44 40 44 26z m-350 -22 c27 -15 58 -63 42 -63 -4 0 -27 18
-52 40 -46 40 -40 53 10 23z m83 -26 c29 -51 14 -58 -27 -11 -23 26 -30 41
-22 46 17 12 26 6 49 -35z m317 33 c12 -8 12 -10 -3 -16 -10 -3 -29 -22 -41
-41 -32 -46 -43 -24 -14 27 24 41 33 46 58 30z m-370 -83 c17 -21 19 -32 12
-59 l-8 -33 -19 50 c-10 28 -26 57 -36 66 -10 9 -15 19 -12 22 8 8 38 -14 63
-46z m422 30 c-12 -5 -27 -26 -33 -46 -6 -20 -16 -45 -22 -56 -10 -18 -12 -17
-19 15 -7 32 -4 38 32 73 24 22 45 35 52 31 8 -5 5 -11 -10 -17z m-781 -95
c19 -19 53 -48 77 -65 52 -38 61 -67 38 -127 -36 -94 -36 -100 -15 -121 17
-17 31 -20 85 -17 63 3 65 2 84 -30 20 -33 20 -34 1 -39 -11 -3 -21 -17 -25
-34 -6 -33 -21 -36 -54 -13 -21 15 -25 15 -42 -1 -16 -15 -22 -15 -35 -5 -8 7
-15 19 -15 26 0 10 -8 9 -32 -6 -41 -25 -45 -25 -58 1 -8 13 -8 29 -2 47 9 27
9 27 -34 23 -51 -4 -57 10 -23 53 17 22 18 26 4 26 -9 0 -28 12 -42 26 -26 26
-26 27 -8 40 10 8 27 14 38 14 17 0 16 3 -7 31 -14 17 -26 36 -26 44 0 18 35
25 72 14 l32 -9 -32 33 c-38 40 -52 75 -52 135 l0 47 18 -30 c11 -16 34 -45
53 -63z m567 76 c17 -17 15 -44 -4 -73 -21 -33 -27 -32 -49 9 -19 34 -19 36 0
55 21 24 36 26 53 9z m589 -37 c-7 -59 -27 -101 -65 -136 l-27 -26 30 7 c17 3
32 7 35 6 49 0 52 -16 14 -61 -23 -28 -24 -31 -7 -31 11 0 28 -7 39 -15 19
-15 18 -16 -9 -40 -15 -14 -35 -25 -43 -25 -12 0 -11 -5 5 -26 33 -42 28 -57
-19 -52 -40 4 -40 3 -35 -24 10 -43 -2 -70 -28 -62 -12 3 -29 13 -38 20 -22
19 -26 18 -33 -11 -7 -29 -22 -32 -48 -8 -17 15 -19 15 -36 0 -30 -27 -52 -22
-52 13 0 23 -4 30 -20 30 -24 0 -25 11 -6 49 14 26 17 27 75 23 45 -3 67 0 86
12 31 21 31 32 -1 108 -15 37 -23 70 -20 84 4 13 37 48 74 77 37 30 80 73 96
96 16 22 31 41 34 41 3 0 2 -22 -1 -49z m-706 -45 c1 -15 4 -11 12 12 13 41
27 37 46 -15 14 -41 14 -42 -14 -79 -27 -35 -29 -36 -42 -18 -8 11 -11 30 -8
49 l6 30 -18 -27 c-26 -40 -33 -35 -33 25 0 61 17 88 37 60 7 -9 13 -26 14
-37z m239 -20 c0 -17 -4 -37 -9 -45 -7 -11 -14 -7 -29 19 l-20 33 4 -39 c3
-22 0 -46 -5 -54 -9 -13 -15 -10 -36 15 -27 33 -31 70 -13 110 14 32 24 32 35
-2 l9 -26 14 33 14 33 18 -23 c10 -12 18 -36 18 -54z m-1285 49 c73 -14 327
-95 370 -118 19 -10 19 -10 -2 -20 -17 -7 -42 -3 -101 16 -44 15 -99 29 -123
32 l-44 5 42 -19 c24 -11 77 -28 118 -38 59 -13 78 -23 96 -46 l21 -29 -23 8
c-13 4 -93 24 -177 45 -85 21 -177 49 -206 63 -52 26 -126 88 -126 106 0 14
67 12 155 -5z m2425 -4 c-34 -64 -140 -115 -345 -165 -77 -19 -149 -38 -159
-42 -19 -7 -19 -6 -1 23 15 26 28 32 94 47 86 19 171 54 134 55 -13 1 -66 -13
-118 -30 -74 -23 -102 -28 -123 -21 l-27 9 38 16 c73 31 273 96 342 110 39 9
94 16 123 16 49 1 52 0 42 -18z m-2014 -31 c32 -16 73 -41 89 -55 25 -21 28
-26 15 -35 -27 -18 -95 -12 -124 11 -22 18 -66 86 -66 104 0 12 30 3 86 -25z
m754 -95 c0 -34 -17 -52 -37 -39 -25 15 -28 40 -8 70 16 24 17 25 30 7 8 -10
14 -27 15 -38z m-195 -31 c-17 -27 -56 -32 -74 -10 -9 11 -6 15 14 20 13 3 35
20 47 37 l23 31 3 -27 c2 -14 -4 -37 -13 -51z m400 6 c26 0 12 -25 -16 -28
-31 -4 -57 23 -65 69 l-7 34 36 -37 c19 -21 42 -38 52 -38z m-81 0 c15 -23 42
-48 61 -57 34 -16 36 -16 58 5 32 30 37 28 37 -13 0 -39 -28 -75 -59 -75 -43
0 -107 79 -125 153 -9 37 -3 34 28 -13z m-264 20 c0 13 1 13 10 0 5 -8 10 -23
10 -33 0 -24 -40 -117 -51 -117 -19 0 -19 40 1 72 11 18 20 40 19 48 0 8 -7
-1 -16 -20 -20 -48 -82 -110 -109 -110 -27 0 -64 44 -64 76 0 33 18 39 39 13
17 -21 21 -22 50 -9 18 7 46 30 64 52 22 27 33 35 39 26 6 -10 8 -9 8 2z m230
-17 c0 -10 11 -37 24 -59 16 -29 21 -46 14 -58 -14 -25 -25 -19 -39 19 l-13
34 -14 -30 c-8 -16 -23 -34 -33 -40 -16 -8 -17 -6 -8 20 7 21 7 36 0 50 -6 11
-11 32 -11 48 l1 28 31 -35 c18 -19 29 -26 25 -16 -9 22 0 56 14 56 5 0 9 -8
9 -17z m-747 -26 c23 -37 15 -47 -41 -47 -70 0 -134 45 -105 74 5 4 35 6 68 4
53 -3 62 -6 78 -31z m586 -26 c-6 -18 -9 -46 -5 -64 l6 -32 -30 32 c-26 29
-28 36 -19 60 6 16 18 36 27 46 23 25 35 0 21 -42z m826 49 c4 -7 -4 -23 -18
-38 -21 -20 -38 -27 -85 -30 -33 -2 -62 0 -65 5 -3 5 3 22 13 38 17 28 24 30
83 33 42 2 68 -1 72 -8z m-1670 -39 c105 -28 110 -30 99 -40 -5 -5 -37 -3 -74
5 -72 15 -200 19 -164 4 11 -4 52 -11 90 -15 93 -8 116 -14 109 -25 -8 -13
-218 -12 -275 1 -64 14 -192 78 -184 91 12 19 307 4 399 -21z m2170 19 c7 -12
-91 -62 -164 -84 -61 -18 -286 -23 -296 -7 -6 10 19 16 119 27 33 3 69 10 80
14 35 14 -91 11 -161 -3 -34 -8 -68 -10 -74 -6 -14 8 64 35 157 53 80 16 330
21 339 6z m-1257 -24 c20 -12 14 -71 -9 -92 -21 -19 -21 -18 -40 5 -43 53 -5
121 49 87z m-697 -48 c8 -7 21 -21 28 -30 12 -16 10 -19 -10 -27 -22 -9 -20
-10 14 -10 20 -1 37 -5 37 -10 0 -22 -54 -72 -90 -82 -43 -13 -90 -5 -90 15 0
20 50 66 74 67 11 1 -3 5 -32 9 -57 9 -84 24 -76 44 12 32 115 49 145 24z
m1467 -4 c12 -8 22 -22 22 -30 0 -11 17 -14 83 -14 45 0 113 -5 151 -10 68
-10 186 -55 186 -71 0 -26 -239 -22 -385 6 -89 17 -120 34 -85 47 12 5 39 4
59 -1 57 -15 179 -24 160 -12 -15 9 -143 32 -179 32 -27 -1 -116 -18 -97 -20
22 -1 67 -45 67 -65 0 -42 -114 -23 -155 26 -34 41 -32 48 18 49 35 0 38 2 20
9 -28 11 -29 20 -3 48 25 27 103 30 138 6z m-948 -84 c0 -19 -7 -46 -16 -59
l-17 -24 -13 24 c-7 13 -14 33 -14 44 -1 14 -5 10 -16 -14 -12 -30 -17 -33
-28 -20 -7 8 -18 29 -24 47 -11 32 -11 32 24 32 20 0 34 -5 35 -12 0 -8 3 -7
6 2 3 8 13 23 21 33 16 17 17 17 29 1 7 -10 13 -34 13 -54z m79 44 c26 -33 26
-48 0 -91 l-21 -34 -24 32 c-28 39 -28 39 -10 84 18 42 28 43 55 9z m196 -4
c21 -40 19 -60 -9 -95 l-23 -29 -22 41 c-21 43 -20 64 7 96 21 24 29 22 47
-13z m130 -11 c40 3 42 -4 18 -54 -20 -42 -28 -44 -41 -7 l-9 27 -16 -37 c-9
-21 -18 -38 -21 -38 -11 0 -36 60 -36 85 0 14 5 34 12 45 12 19 13 19 36 -3
16 -15 33 -21 57 -18z m-1085 2 c-8 -5 -43 -11 -78 -15 -35 -3 -71 -11 -80
-16 -20 -13 100 -4 159 11 21 5 47 6 60 1 l23 -9 -25 -16 c-53 -35 -438 -62
-466 -33 -15 15 102 64 182 76 70 10 244 11 225 1z m864 -27 c9 -8 16 -18 16
-21 0 -11 -42 -73 -49 -73 -9 0 -41 55 -41 72 0 36 47 50 74 22z m-827 -50
c-3 -4 -35 -16 -70 -29 -36 -12 -75 -30 -88 -39 l-24 -17 30 6 c17 4 60 16 97
27 60 19 70 20 96 7 l30 -15 -62 -32 c-60 -31 -115 -76 -105 -87 5 -4 105 54
158 92 48 34 14 -5 -69 -81 -88 -80 -165 -126 -212 -126 -36 0 -35 15 1 72 38
59 77 88 181 133 47 20 72 33 57 30 -16 -3 -72 -25 -125 -49 -53 -24 -115 -49
-137 -55 -50 -14 -115 -14 -115 -1 0 20 75 92 121 115 54 28 257 69 236 49z
m1689 -9 c48 -9 107 -24 130 -34 47 -21 124 -93 124 -116 0 -19 -50 -20 -111
-2 -67 20 -278 111 -279 120 0 12 34 8 91 -11 30 -11 70 -22 89 -25 32 -6 34
-6 16 8 -11 8 -45 24 -75 35 -120 44 -117 48 15 25z m-1437 -11 c2 -2 -4 -14
-15 -26 -10 -12 -13 -18 -6 -14 13 8 34 -32 25 -47 -3 -4 12 -1 33 8 35 15 40
15 50 0 7 -9 15 -16 18 -16 30 4 45 -2 49 -16 3 -12 5 -8 6 9 2 57 36 32 66
-50 8 -21 14 -29 14 -19 1 10 -6 32 -15 48 -14 28 -14 30 2 27 11 -2 20 7 27
27 16 47 43 58 72 28 21 -21 16 -47 -26 -138 l-33 -69 -13 29 c-12 26 -13 26
-8 5 3 -14 8 -35 11 -47 16 -62 -73 4 -93 69 -8 22 -11 26 -12 13 -1 -11 -8
-31 -17 -44 l-17 -24 -18 24 c-11 14 -19 41 -19 63 l0 39 -22 -21 c-28 -26
-77 -45 -96 -37 -12 4 -12 9 2 30 19 29 21 44 4 27 -7 -7 -25 -12 -40 -12 -34
0 -38 29 -9 57 19 17 18 18 -27 18 -36 0 -47 4 -50 17 -5 26 63 57 113 50 22
-2 42 -6 44 -8z m339 -9 c13 -28 5 -32 -23 -12 -10 8 -15 19 -11 25 11 18 22
14 34 -13z m90 -9 c22 -33 22 -35 6 -75 -9 -22 -20 -41 -24 -41 -13 0 -51 57
-53 77 -1 18 30 73 42 73 3 0 16 -15 29 -34z m85 5 c20 -34 21 -77 3 -110
l-13 -23 -21 27 c-24 31 -28 71 -10 110 14 32 20 32 41 -4z m107 -46 c0 -31
-6 -47 -24 -64 l-24 -22 -11 32 c-16 46 -14 67 11 101 20 29 22 30 35 12 7
-10 13 -36 13 -59z m90 45 c19 -27 20 -35 10 -60 -6 -16 -20 -36 -30 -45 -17
-15 -19 -15 -34 7 -22 32 -20 77 6 105 12 13 23 23 24 23 1 0 12 -14 24 -30z
m66 18 c4 -6 -1 -17 -11 -24 -23 -17 -29 -12 -20 15 7 23 20 27 31 9z m417 -4
c18 -9 38 -21 45 -27 20 -16 -6 -37 -46 -37 -28 0 -33 -3 -24 -12 7 -7 12 -22
12 -35 0 -32 -39 -31 -79 3 -26 22 -29 28 -19 49 7 15 16 22 27 18 13 -4 13
-2 -1 7 -29 18 -21 38 15 43 17 2 33 5 35 5 2 1 17 -5 35 -14z m-385 -30 c12
-4 22 -14 22 -24 0 -31 11 -49 26 -43 15 5 20 -12 6 -21 -5 -3 -14 -30 -21
-60 -7 -31 -16 -58 -20 -60 -11 -7 -71 133 -71 165 0 23 16 49 30 49 3 0 15
-3 28 -6z m703 -120 c37 -36 69 -89 69 -114 0 -16 -69 -6 -109 15 -34 17 -224
185 -218 192 3 2 27 -11 54 -30 26 -19 68 -45 93 -57 l45 -22 -33 34 c-18 19
-60 47 -92 63 -99 47 -68 47 47 0 71 -30 119 -56 144 -81z m-588 66 c4 -18 9
-19 33 -10 21 8 29 8 36 -2 5 -9 8 -6 8 10 0 26 1 26 44 8 33 -14 86 -72 86
-94 0 -28 -89 4 -116 42 l-16 21 7 -23 c8 -26 -10 -85 -30 -102 -12 -10 -18
-5 -35 31 -12 27 -20 36 -20 24 0 -30 -37 -84 -65 -97 -14 -6 -27 -9 -30 -7
-7 7 41 154 61 188 21 36 30 39 37 11z m-1023 0 c0 -5 -19 -22 -42 -36 -48
-30 -118 -93 -118 -107 0 -11 62 33 113 82 48 45 52 18 4 -36 -18 -21 -50 -60
-71 -86 -43 -54 -69 -74 -116 -87 l-33 -9 6 41 c3 23 21 63 41 92 48 69 152
156 188 156 16 0 28 -4 28 -10z m1399 -40 c86 -72 136 -144 143 -206 3 -26 0
-29 -22 -25 -14 1 -37 9 -52 17 -29 15 -183 202 -174 211 3 3 27 -12 53 -34
26 -22 61 -48 78 -59 l30 -19 -23 32 c-13 18 -50 49 -82 70 -63 40 -76 63 -36
63 15 0 49 -20 85 -50z m-916 -9 c22 -37 22 -63 -1 -91 l-18 -23 -18 37 c-14
30 -15 43 -6 71 14 43 21 43 43 6z m287 -48 c0 -29 -24 -73 -39 -73 -12 0 -35
59 -34 83 1 10 9 30 18 43 l16 25 20 -25 c10 -13 19 -37 19 -53z m80 6 c0 -15
-9 -37 -19 -50 l-20 -24 -15 37 c-17 39 -13 61 12 91 15 17 16 17 29 -5 7 -13
12 -35 13 -49z m-276 39 c21 -30 20 -57 -3 -91 l-18 -28 -22 27 c-11 15 -21
36 -21 48 0 24 26 66 40 66 5 0 16 -10 24 -22z m93 -23 c16 -34 16 -38 -1 -70
-21 -38 -29 -37 -51 5 -14 26 -13 33 2 65 9 19 20 35 25 35 5 0 16 -16 25 -35z
m-617 7 c0 -4 -16 -24 -36 -43 -35 -33 -80 -106 -71 -115 5 -5 65 60 87 95 9
13 23 22 32 20 14 -3 10 -15 -21 -67 -45 -74 -76 -108 -113 -128 -44 -23 -51
-18 -45 25 7 52 40 117 89 174 35 41 78 63 78 39z m1260 -39 c49 -55 84 -122
94 -175 6 -33 4 -38 -12 -38 -37 0 -99 57 -145 134 -39 65 -43 76 -27 76 11 0
31 -18 48 -42 35 -51 72 -86 72 -69 0 20 -20 53 -67 109 -38 44 -41 52 -25 52
12 0 39 -21 62 -47z m-1145 -25 c-14 -129 -31 -172 -81 -205 -22 -14 -27 -14
-35 -2 -18 25 -4 114 27 175 35 69 61 87 40 27 -7 -21 -16 -56 -20 -78 -6 -36
-5 -38 8 -22 8 10 19 48 26 85 14 75 17 82 32 82 6 0 8 -22 3 -62z m989 -27
c9 -41 20 -79 26 -85 15 -15 13 22 -6 83 -27 94 8 73 46 -27 21 -55 27 -146
10 -157 -16 -10 -60 26 -81 67 -13 26 -22 69 -26 126 -7 106 8 103 31 -7z
m-954 -47 c0 -30 5 -54 10 -54 6 0 10 19 10 43 0 24 7 52 16 63 14 18 15 14 9
-46 -9 -88 -25 -152 -39 -147 -26 8 -48 145 -30 191 12 30 24 5 24 -50z m330
12 c0 -24 -35 -74 -45 -65 -3 4 -9 23 -12 43 -4 27 -1 42 13 57 17 19 19 19
31 3 7 -10 13 -27 13 -38z m189 20 c12 -18 21 -43 21 -54 0 -26 -20 -72 -32
-72 -14 0 -48 63 -48 90 0 22 24 70 35 70 2 0 13 -15 24 -34z m86 5 c11 -23
12 -36 4 -60 -14 -39 -24 -39 -45 0 -13 26 -13 36 -4 60 16 37 26 37 45 0z
m305 -45 c0 -79 -15 -139 -34 -133 -13 4 -30 68 -39 145 -5 40 -3 52 6 49 7
-2 14 -24 17 -50 8 -66 20 -70 20 -5 0 30 3 58 7 61 17 18 23 1 23 -67z m-824
37 c3 -16 10 -39 14 -53 l8 -25 1 28 c1 18 6 27 14 25 14 -5 22 -79 12 -117
l-7 -26 -18 25 c-18 24 -33 71 -44 138 -7 39 11 43 20 5z m324 8 c17 -33 11
-78 -14 -108 l-25 -28 -15 37 c-20 47 -20 46 4 86 23 37 35 40 50 13z m401
-54 c-7 -29 -21 -68 -33 -87 l-21 -35 -9 25 c-5 13 -8 44 -6 69 4 53 28 69 29
19 1 -33 1 -32 15 12 21 68 26 77 31 63 2 -7 0 -36 -6 -66z m-337 -97 c0 -25
-7 -61 -16 -80 l-16 -35 -18 40 c-23 52 -23 105 0 139 l18 28 16 -24 c10 -13
17 -41 16 -68z m-134 40 c10 -25 10 -34 -5 -56 -16 -25 -17 -25 -36 -8 -24 21
-24 38 -1 69 22 32 27 31 42 -5z m248 -3 c19 -32 8 -62 -24 -62 -21 0 -30 31
-19 72 7 30 21 27 43 -10z m-309 -58 c1 -7 -73 -39 -89 -39 -22 0 -8 20 33 48
37 26 43 28 49 13 4 -9 7 -19 7 -22z m101 -13 c-17 -53 -47 -86 -78 -86 -35 0
-92 -35 -92 -56 0 -9 9 -18 20 -21 16 -4 18 -8 9 -19 -15 -18 -33 -18 -49 1
-9 11 -16 12 -26 4 -7 -6 -32 -20 -56 -32 -50 -26 -99 -86 -124 -154 -9 -26
-23 -53 -31 -59 -8 -7 -13 -25 -11 -40 2 -22 -3 -31 -26 -43 -23 -13 -30 -13
-33 -3 -4 10 -8 10 -19 1 -18 -14 -44 -5 -44 17 0 11 -5 14 -17 10 -17 -7 -33
9 -33 32 0 6 8 12 18 13 16 0 16 1 0 7 -27 11 -96 116 -110 166 -10 37 -10 55
1 94 8 26 19 66 25 89 l12 42 27 -34 c15 -19 42 -42 59 -51 29 -15 30 -17 12
-27 -25 -14 -41 -35 -54 -71 l-10 -30 23 23 c52 48 139 36 181 -26 l23 -34 13
31 c22 53 69 110 90 110 11 0 20 -6 20 -12 0 -8 12 -13 29 -13 16 0 27 3 24 8
-2 4 -13 7 -23 7 -10 0 -22 5 -25 10 -3 6 -20 10 -36 10 -20 0 -29 4 -26 13 6
17 52 12 98 -11 29 -14 39 -16 39 -7 0 19 58 65 75 59 10 -4 12 0 8 15 -4 15
4 24 34 39 21 11 49 32 62 46 30 32 36 27 21 -18z m296 9 c28 -24 34 -34 22
-35 -17 0 -98 29 -98 35 0 14 14 35 24 35 7 0 30 -16 52 -35z m-88 -39 c52
-27 35 -67 -22 -52 -28 7 -66 63 -66 97 l0 23 28 -26 c15 -14 42 -33 60 -42z
m-799 29 c33 -16 81 -70 81 -90 0 -20 -27 -37 -48 -31 -32 11 -92 75 -92 100
0 39 15 45 59 21z m1358 3 c18 -24 63 -186 63 -227 0 -23 -7 -56 -16 -74 -27
-53 -87 -127 -104 -128 -9 0 -6 -4 8 -9 19 -8 21 -13 12 -30 -13 -23 -14 -24
-43 -8 -20 10 -21 10 -8 -6 19 -23 3 -34 -48 -34 -56 0 -74 14 -69 54 2 20 0
34 -7 34 -6 0 -24 30 -40 67 -16 37 -45 85 -63 105 -34 37 -132 96 -132 79 0
-15 -31 -21 -51 -10 -18 9 -19 8 -7 -10 32 -51 -28 -28 -83 32 -20 22 -29 27
-29 16 0 -17 25 -46 78 -91 56 -47 33 -67 -29 -25 -48 32 -83 98 -75 142 8 43
19 44 48 5 34 -46 62 -62 93 -50 34 13 33 47 -1 60 -14 6 -23 14 -20 19 11 17
48 -2 68 -35 l19 -33 32 19 c48 27 97 35 97 16 0 -11 -9 -16 -29 -16 -17 0
-33 -4 -36 -10 -3 -5 -16 -10 -28 -11 -20 -1 -20 -2 3 -8 17 -5 29 -3 36 7 19
26 46 8 83 -55 20 -34 39 -62 42 -63 3 0 11 10 18 23 30 56 108 73 167 36 31
-19 33 -19 27 -2 -12 34 -44 73 -61 74 -15 0 -14 2 2 12 32 20 96 79 96 89 0
5 -13 -7 -30 -25 -41 -47 -86 -65 -107 -45 -13 14 -13 19 1 46 16 31 80 82
102 82 6 0 16 -6 21 -12z m-882 -43 c-32 -33 -65 -46 -65 -27 0 11 38 46 65
60 35 19 35 2 0 -33z m393 2 c26 -24 28 -37 7 -37 -18 0 -87 65 -78 74 7 7 42
-11 71 -37z m-229 -54 c2 -29 21 -10 39 40 l20 52 12 -27 c11 -23 10 -35 -4
-72 -9 -25 -18 -53 -18 -63 -2 -30 83 -143 140 -186 36 -28 50 -43 43 -50 -8
-8 -24 -1 -53 20 -45 32 -133 132 -124 140 3 3 -4 13 -16 23 -20 16 -24 16
-49 1 -15 -8 -25 -20 -23 -26 6 -14 -95 -125 -134 -148 -39 -22 -59 -2 -21 22
31 19 141 132 135 138 -2 3 4 13 15 24 23 23 24 38 4 86 -16 38 -19 71 -8 99
5 14 10 10 24 -22 10 -21 18 -45 18 -51z m-240 31 c-17 -18 -19 -23 -6 -18 21
8 22 0 1 -31 -15 -23 -18 -23 -42 -11 -15 7 -40 16 -55 20 -24 6 -27 9 -17 21
13 16 90 43 124 44 18 1 18 -1 -5 -25z m596 -3 c35 -20 32 -36 -7 -36 -14 0
-26 -4 -25 -9 3 -18 -34 -18 -54 0 -26 23 -24 37 4 30 12 -3 16 -3 9 0 -7 3
-17 15 -23 25 -10 19 -8 20 28 13 21 -3 52 -14 68 -23z m-406 -47 c22 -49 -47
-153 -113 -170 -26 -6 -27 -5 -17 14 6 12 27 33 47 48 35 27 73 84 55 84 -5 0
-19 -14 -31 -30 -22 -31 -77 -66 -87 -56 -6 5 116 133 128 135 3 1 11 -11 18
-25z m82 -136 c7 -13 39 -51 72 -85 61 -64 62 -77 4 -46 -47 24 -143 25 -190
1 -61 -31 -62 -17 -2 41 30 29 63 66 72 82 21 35 29 36 44 7z m-332 -19 c23
-8 30 -16 26 -28 -3 -10 20 -52 63 -111 87 -122 84 -116 68 -129 -11 -10 -29
9 -92 99 -61 86 -82 109 -96 104 -15 -4 -18 1 -18 35 0 45 2 46 49 30z m671
-29 c0 -33 -3 -40 -17 -38 -16 3 -55 -47 -230 -292 l-52 -73 -18 32 c-10 17
-38 66 -61 107 l-44 76 -45 -68 c-28 -41 -41 -70 -35 -72 21 -7 13 -20 -19
-31 -47 -16 -49 -15 -49 30 0 32 3 40 15 35 11 -4 33 21 76 86 l61 91 60 -108
c33 -59 64 -103 68 -98 5 4 58 77 119 162 82 114 108 157 101 166 -8 10 -4 16
17 23 48 18 53 15 53 -28z m-320 -78 c0 -1 -7 -14 -16 -28 -16 -23 -18 -24
-35 -8 -29 26 -23 39 16 39 19 0 35 -1 35 -3z m-320 -62 c-15 -9 -80 -24 -151
-33 -34 -5 -70 6 -58 17 3 3 36 10 75 16 38 5 83 14 99 19 34 10 59 -4 35 -19z
m680 3 c92 -16 98 -19 84 -33 -16 -16 -214 20 -214 39 0 14 14 22 29 15 9 -3
54 -13 101 -21z m-276 -97 c-6 -16 -24 -22 -24 -8 0 4 -9 18 -19 32 l-19 24
-13 -27 c-7 -15 -16 -27 -21 -27 -21 0 -18 33 7 76 l27 46 34 -51 c19 -29 31
-56 28 -65z m-208 -71 c21 -31 28 -31 42 1 13 27 32 24 32 -4 0 -9 -11 -34
-24 -56 l-24 -38 -35 48 c-32 44 -38 74 -16 74 5 0 16 -11 25 -25z m283 9 c5
3 11 -12 13 -34 4 -44 0 -46 -48 -28 -25 9 -30 15 -24 27 5 9 11 24 14 35 5
15 9 16 21 6 8 -6 18 -9 24 -6z m424 -331 c-337 -2 -889 -2 -1225 0 -337 1
-62 2 612 2 674 0 949 -1 613 -2z m-1344 -232 c62 -62 45 -250 -23 -267 -69
-17 -99 32 -94 152 3 71 6 86 27 108 29 31 64 33 90 7z m982 -7 c22 -23 24
-34 24 -119 0 -86 -2 -96 -25 -120 -53 -56 -117 -13 -127 86 -13 135 61 224
128 153z m207 -1 c2 -17 -3 -23 -27 -28 -40 -8 -61 -39 -61 -88 0 -51 15 -76
56 -93 42 -18 48 -54 9 -54 -40 0 -83 27 -102 63 -22 42 -22 123 1 165 29 56
118 81 124 35z m170 0 c2 -17 -3 -23 -27 -28 -40 -8 -61 -39 -61 -88 0 -51 15
-76 56 -93 42 -18 48 -54 9 -54 -40 0 -83 27 -102 63 -22 42 -22 123 1 165 29
56 118 81 124 35z m192 -11 c0 -22 3 -87 7 -145 l6 -107 -26 0 c-26 0 -27 2
-27 54 0 29 -3 68 -6 85 l-7 32 -28 -27 c-26 -24 -29 -35 -29 -87 0 -55 -1
-58 -22 -55 -22 3 -23 6 -26 141 l-3 137 26 0 c23 0 25 -4 25 -40 0 -22 4 -40
10 -40 5 0 26 20 47 45 20 25 41 45 45 45 4 0 8 -17 8 -38z m219 -165 c1 -86
0 -88 -21 -85 -21 3 -23 9 -26 86 -2 45 -6 82 -11 82 -4 0 -17 -10 -29 -23
-15 -16 -22 -38 -24 -82 -3 -54 -5 -60 -25 -63 -23 -3 -23 -3 -23 137 l0 141
25 0 c23 0 25 -4 25 -42 l0 -43 48 48 47 47 6 -57 c4 -32 7 -98 8 -146z
m-1931 56 c-3 -135 -4 -138 -25 -141 -23 -3 -23 -2 -23 112 l0 116 -25 0 c-24
0 -24 0 -27 -112 -3 -109 -4 -113 -25 -116 -23 -3 -23 -3 -23 137 l0 141 75 0
76 0 -3 -137z m274 95 c2 -36 7 -44 26 -46 20 -3 22 1 22 42 0 42 2 46 25 46
l25 0 0 -141 c0 -140 0 -140 -22 -137 -21 3 -23 9 -26 71 -3 67 -3 67 -32 67
-41 0 -70 40 -70 96 0 40 2 44 24 44 22 0 25 -5 28 -42z m258 21 c0 -12 -8
-23 -20 -26 -18 -5 -20 -15 -22 -117 -3 -107 -4 -111 -25 -114 -23 -3 -23 -2
-23 111 0 106 -1 115 -20 120 -12 3 -20 14 -20 26 0 19 6 21 65 21 59 0 65 -2
65 -21z m153 3 c16 -17 37 -150 37 -230 0 -29 -3 -33 -22 -30 -20 3 -23 10
-26 48 -4 76 -10 90 -37 90 -23 0 -24 -3 -27 -67 -3 -62 -5 -68 -25 -71 -23
-3 -23 -3 -23 137 l0 141 53 0 c39 0 58 -5 70 -18z m280 -14 c44 -59 16 -186
-39 -175 -22 4 -24 1 -24 -35 0 -35 -2 -39 -22 -36 -22 3 -23 6 -26 141 l-3
138 47 -3 c38 -2 51 -8 67 -30z"/>
<path d="M1452 2880 c0 -14 2 -19 5 -12 2 6 2 18 0 25 -3 6 -5 1 -5 -13z"/>
<path d="M1542 2860 c0 -14 2 -19 5 -12 2 6 2 18 0 25 -3 6 -5 1 -5 -13z"/>
<path d="M1570 2746 c0 -2 7 -7 16 -10 8 -3 12 -2 9 4 -6 10 -25 14 -25 6z"/>
<path d="M849 1361 c-32 -33 -38 -75 -14 -107 8 -10 15 -14 15 -8 0 6 12 16
26 23 21 9 32 9 57 -4 43 -21 62 -19 75 11 7 14 8 23 2 19 -5 -3 -10 3 -10 14
0 33 -11 51 -41 66 -43 23 -77 18 -110 -14z"/>
<path d="M878 1223 c7 -3 16 -2 19 1 4 3 -2 6 -13 5 -11 0 -14 -3 -6 -6z"/>
<path d="M922 1189 c-2 -19 1 -28 8 -24 6 3 8 10 5 15 -3 5 -1 11 5 15 6 4 8
11 5 16 -11 18 -21 9 -23 -22z"/>
<path d="M2029 1361 c-16 -16 -29 -39 -29 -51 0 -13 -4 -19 -11 -14 -8 4 -7 0
1 -15 16 -31 35 -36 74 -17 36 17 76 10 91 -14 12 -19 25 9 25 52 0 28 -7 42
-31 62 -41 35 -83 34 -120 -3z"/>
<path d="M2108 1223 c6 -2 18 -2 25 0 6 3 1 5 -13 5 -14 0 -19 -2 -12 -5z"/>
<path d="M2060 1210 c-12 -7 -12 -10 -1 -10 7 0 11 -6 8 -15 -4 -8 -2 -17 4
-21 14 -8 16 -3 10 28 -5 21 -9 25 -21 18z"/>
<path d="M2035 1150 c3 -5 8 -10 11 -10 2 0 4 5 4 10 0 6 -5 10 -11 10 -5 0
-7 -4 -4 -10z"/>
<path d="M711 399 c-21 -60 -5 -159 25 -159 28 0 43 141 18 181 -11 19 -32 8
-43 -22z"/>
<path d="M1689 403 c-14 -35 -7 -139 10 -156 22 -22 41 20 41 93 0 86 -29 121
-51 63z"/>
<path d="M1230 400 c0 -14 7 -20 24 -20 19 0 23 4 19 20 -3 11 -14 20 -24 20
-12 0 -19 -7 -19 -20z"/>
<path d="M1520 378 c0 -50 15 -83 25 -56 10 25 1 91 -12 96 -9 2 -13 -9 -13
-40z"/>
</g>
</svg>
